<?xml version="1.0" encoding="UTF-8"?>
<svg xmlns="http://www.w3.org/2000/svg" viewBox="0 0 400 200">
    <defs>
        <linearGradient id="ausGrad" x1="0%" y1="0%" x2="100%" y2="100%">
            <stop offset="0%" style="stop-color:#00008B"/>
            <stop offset="100%" style="stop-color:#000066"/>
        </linearGradient>
    </defs>
    
    <!-- Background -->
    <rect width="400" height="300" fill="url(#ausGrad)"/>

    <!-- Center Document Icon -->
    <g transform="translate(200,150)" fill="none" stroke="#FFFFFF" stroke-width="2">
        <rect x="-40" y="-30" width="80" height="60" rx="4"/>
        <line x1="-25" y1="-15" x2="25" y2="-15"/>
        <line x1="-25" y1="0" x2="25" y2="0"/>
        <line x1="-25" y1="15" x2="10" y2="15"/>
    </g>

    <!-- Australian Flag -->
    <g transform="translate(320,20) scale(0.5)">
    <rect width="40" height="30" fill="#00008B"/>
    <!-- Union Jack -->
    <path d="M0,0 L20,15 L0,30" stroke="white" stroke-width="2"/>
    <path d="M40,0 L20,15 L40,30" stroke="white" stroke-width="2"/>
    <path d="M20,0 L20,30" stroke="white" stroke-width="4"/>
    <path d="M0,15 L40,15" stroke="white" stroke-width="4"/>
    <!-- Southern Cross -->
    <circle cx="28" cy="8" r="1.2" fill="white"/>
    <circle cx="32" cy="10" r="1.2" fill="white"/>
    <circle cx="30" cy="14" r="1.2" fill="white"/>
    <circle cx="34" cy="12" r="1.2" fill="white"/>
    <circle cx="36" cy="14" r="1" fill="white"/>
</g>

    <!-- Horizontal lines -->
    <path d="M40 150 H360" stroke="white" stroke-width="2" opacity="0.1"/>
    <path d="M40 160 H360" stroke="white" stroke-width="2" opacity="0.1"/>
</svg>