<?xml version="1.0" encoding="UTF-8"?>
<svg xmlns="http://www.w3.org/2000/svg" viewBox="0 0 400 200">
    <defs>
        <linearGradient id="usGrad" x1="0%" y1="0%" x2="100%" y2="100%">
            <stop offset="0%" style="stop-color:#003f88"/>
            <stop offset="100%" style="stop-color:#001d3d"/>
        </linearGradient>
    </defs>
    
    <!-- Background with US-themed gradient -->
    <rect width="400" height="300" fill="url(#usGrad)"/>

    <!-- Center Document Icon -->
    <g transform="translate(200,150)" fill="none" stroke="#FFFFFF" stroke-width="2">
        <rect x="-40" y="-30" width="80" height="60" rx="4"/>
        <line x1="-25" y1="-15" x2="25" y2="-15"/>
        <line x1="-25" y1="0" x2="25" y2="0"/>
        <line x1="-25" y1="15" x2="10" y2="15"/>
    </g>

    <!-- US Flag in corner -->
    <g transform="translate(320,20) scale(0.5)">
        <rect width="40" height="30" fill="#B22234"/>
        <g fill="#FFFFFF">
            <rect y="0" width="40" height="2.3"/>
            <rect y="4.6" width="40" height="2.3"/>
            <rect y="9.2" width="40" height="2.3"/>
            <rect y="13.8" width="40" height="2.3"/>
            <rect y="18.4" width="40" height="2.3"/>
            <rect y="23" width="40" height="2.3"/>
            <rect y="27.6" width="40" height="2.3"/>
        </g>
        <rect width="16" height="16" fill="#3C3B6E"/>
        <circle cx="8" cy="8" r="3" fill="white"/>
    </g>

    <!-- Horizontal lines -->
    <path d="M40 150 H360" stroke="white" stroke-width="2" opacity="0.1"/>
    <path d="M40 160 H360" stroke="white" stroke-width="2" opacity="0.1"/>
</svg>