<?xml version="1.0" encoding="UTF-8"?>
<svg xmlns="http://www.w3.org/2000/svg" xmlns:xlink="http://www.w3.org/1999/xlink" viewBox="0 0 400 200">
    <defs>
        <linearGradient id="canadaGrad" x1="0%" y1="0%" x2="100%" y2="100%">
            <stop offset="0%" style="stop-color:#EF4444"/>
            <stop offset="100%" style="stop-color:#991B1B"/>
        </linearGradient>
    </defs>
    
    <!-- Background -->
    <rect width="400" height="200" fill="url(#canadaGrad)"/>
    
    <!-- Small Canadian Flag in corner -->
    <g transform="translate(320,20) scale(0.5)">
        <rect width="40" height="30" fill="#FFFFFF"/>
        <rect x="10" width="20" height="30" fill="#FF0000"/>
        <path d="M20 25l-4-2-2 4v-5l-4 2 1-4-4-2h5l-2-4 4 2 2-4 2 4 4-2-2 4h5l-4 2 1 4-4-2z" fill="#FF0000"/>
    </g>
    
    <!-- Decorative Lines -->
    <path d="M40 150 H360" stroke="#FFFFFF" stroke-width="2" opacity="0.1"/>
    <path d="M40 160 H360" stroke="#FFFFFF" stroke-width="2" opacity="0.1"/>
    
    <!-- Maple Leaf Watermark -->
    <path d="M200 150l-32-16-16 32v-40l-32 16 8-32-32-16h40l-16-32 32 16 16-32 16 32 32-16-16 32h40l-32 16 8 32-32-16z" 
          fill="#FFFFFF" opacity="0.1"/>
          
    <!-- Immigration Icons -->
    <g transform="translate(160,80)" fill="#FFFFFF" opacity="0.8">
        <!-- Passport Symbol -->
        <rect x="-30" y="-20" width="60" height="40" rx="4" fill="none" stroke="#FFFFFF" stroke-width="2"/>
        <path d="M-20 -10h40M-20 0h40M-20 10h20" stroke="#FFFFFF" stroke-width="2"/>
    </g>
</svg>